<?xml version="1.0" encoding="iso-8859-1"?>
<!-- Uploaded to: SVG Repo, www.svgrepo.com, Generator: SVG Repo Mixer Tools -->
<!DOCTYPE svg PUBLIC "-//W3C//DTD SVG 1.1//EN" "http://www.w3.org/Graphics/SVG/1.1/DTD/svg11.dtd">
<svg height="800px" width="800px" version="1.1" id="Capa_1" xmlns="http://www.w3.org/2000/svg" xmlns:xlink="http://www.w3.org/1999/xlink" 
	 viewBox="0 0 296.272 296.272" xml:space="preserve">
<g>
	<path style="fill:none;" d="M47.279,186.625c-0.616,0-1.219-0.056-1.814-0.135c2.224,9.44,6.694,21.828,15.656,32.099
		l-5.974-31.964H47.279z"/>
	<path style="fill:none;" d="M192.013,51.106c1.422,5.769,6.795,8.754,6.849,8.784c0.055,0.029,0.077,0.042,0.132,0.073
		c3.011,1.733,5.94,2.611,8.704,2.611c5.711,0,10.174-3.773,12.843-6.812l-26.643-16.113
		C191.811,43.873,191.177,47.714,192.013,51.106z"/>
	<path style="fill:#58D2D4;" d="M113.502,238.604c0.142-0.005,0.282-0.002,0.422,0.005c0.152,0.009,16.255,0.753,33.101-7.214
		c18.114-8.565,30.199-23.542,36.063-44.625H71.854l8.729,46.125C89.991,237.069,100.993,238.995,113.502,238.604z"/>
	<path style="fill:#FDBD1D;" d="M72.814,228.718l-7.841-41.948l7.839,41.948c0.006,0.003,0.012,0.007,0.018,0.011
		C72.825,228.726,72.82,228.722,72.814,228.718z"/>
	<path style="fill:#FDBD1D;" d="M194.499,150.078c0.08,0.042,0.156,0.09,0.234,0.135C194.655,150.168,194.58,150.12,194.499,150.078
		z"/>
	<path style="fill:#FDBD1D;" d="M193.057,149.482c0.069,0.021,0.137,0.045,0.205,0.068
		C193.194,149.527,193.126,149.502,193.057,149.482z"/>
	<path style="fill:#FDBD1D;" d="M191.484,149.177c0.067,0.007,0.134,0.014,0.2,0.022
		C191.618,149.191,191.551,149.184,191.484,149.177z"/>
	<path style="fill:#FDBD1D;" d="M192.253,149.286c0.049,0.009,0.1,0.016,0.149,0.027
		C192.353,149.302,192.303,149.296,192.253,149.286z"/>
	<path style="fill:#FDBD1D;" d="M196.263,151.36c0.098,0.095,0.193,0.192,0.287,0.292
		C196.457,151.552,196.362,151.455,196.263,151.36z"/>
	<path style="fill:#FDBD1D;" d="M182.845,158.033c-0.007-0.067-0.015-0.132-0.021-0.199
		C182.831,157.9,182.838,157.966,182.845,158.033z"/>
	<path style="fill:#FDBD1D;" d="M196.69,151.806c0.31,0.347,0.591,0.722,0.838,1.119
		C197.281,152.526,197.002,152.153,196.69,151.806z"/>
	<path style="fill:#FDBD1D;" d="M195.601,150.795c0.165,0.127,0.324,0.259,0.478,0.398
		C195.924,151.053,195.765,150.921,195.601,150.795z"/>
	<path style="fill:#FDBD1D;" d="M195.063,150.414c0.093,0.06,0.185,0.121,0.274,0.184
		C195.247,150.534,195.156,150.473,195.063,150.414z"/>
	<path style="fill:#FDBD1D;" d="M183.196,159.608c-0.023-0.067-0.046-0.134-0.067-0.202
		C183.149,159.474,183.173,159.541,183.196,159.608z"/>
	<path style="fill:#FDBD1D;" d="M184.834,162.42c-0.136-0.15-0.265-0.306-0.389-0.466
		C184.569,162.114,184.699,162.269,184.834,162.42z"/>
	<path style="fill:#FDBD1D;" d="M185.298,162.897c-0.099-0.093-0.196-0.187-0.29-0.286
		C185.102,162.709,185.2,162.804,185.298,162.897z"/>
	<path style="fill:#FDBD1D;" d="M182.96,158.749c-0.01-0.048-0.017-0.097-0.026-0.144
		C182.943,158.653,182.95,158.702,182.96,158.749z"/>
	<path style="fill:#FDBD1D;" d="M184.244,161.684c-0.063-0.089-0.123-0.179-0.182-0.271
		C184.121,161.505,184.181,161.595,184.244,161.684z"/>
	<path style="fill:#FDBD1D;" d="M186.572,163.876c-0.398-0.247-0.771-0.527-1.119-0.837
		C185.801,163.349,186.174,163.629,186.572,163.876z"/>
	<path style="fill:#FDBD1D;" d="M197.614,153.065c0.079,0.133,0.155,0.267,0.226,0.404
		C197.769,153.331,197.692,153.198,197.614,153.065z"/>
	<path style="fill:#FDBD1D;" d="M183.454,160.286c-0.032-0.073-0.061-0.147-0.091-0.221
		C183.393,160.139,183.421,160.213,183.454,160.286z"/>
	<path style="fill:#FDBD1D;" d="M183.857,161.077c-0.044-0.077-0.091-0.15-0.132-0.228
		C183.767,160.927,183.813,161.001,183.857,161.077z"/>
	<path style="fill:#FDBD1D;" d="M193.714,149.715c0.075,0.031,0.151,0.06,0.225,0.093
		C193.865,149.775,193.789,149.746,193.714,149.715z"/>
	<path style="fill:#FDBD1D;" d="M198.728,157.109c0-1.312-0.324-2.547-0.888-3.639c-1.093-0.564-2.328-0.888-3.64-0.888
		c-4.396,0-7.972,3.574-7.972,7.968c0,1.312,0.324,2.547,0.888,3.638c-0.138-0.071-0.272-0.148-0.404-0.227
		c1.189,0.705,2.57,1.117,4.049,1.117C195.154,165.076,198.728,161.502,198.728,157.109z"/>
	<path style="fill:#58D2D4;" d="M186.228,160.549c0-4.393,3.576-7.968,7.972-7.968c1.312,0,2.548,0.324,3.64,0.888l0,0
		c-0.071-0.138-0.148-0.272-0.226-0.404c-0.028-0.047-0.057-0.094-0.085-0.141c-0.247-0.397-0.527-0.771-0.838-1.119
		c-0.046-0.051-0.092-0.103-0.14-0.153c-0.094-0.1-0.189-0.197-0.287-0.292c-0.061-0.058-0.123-0.112-0.185-0.168
		c-0.154-0.139-0.313-0.271-0.478-0.398c-0.087-0.066-0.173-0.134-0.263-0.197c-0.089-0.063-0.181-0.124-0.274-0.184
		c-0.108-0.07-0.218-0.136-0.33-0.201c-0.078-0.045-0.154-0.093-0.234-0.135c-0.182-0.097-0.369-0.187-0.56-0.27
		c-0.074-0.033-0.15-0.062-0.225-0.093c-0.148-0.059-0.299-0.114-0.452-0.165c-0.068-0.023-0.136-0.047-0.205-0.068
		c-0.215-0.065-0.433-0.122-0.655-0.169c-0.049-0.011-0.1-0.018-0.149-0.027c-0.188-0.036-0.377-0.064-0.569-0.087
		c-0.066-0.007-0.133-0.015-0.2-0.022c-0.239-0.022-0.48-0.036-0.724-0.036c-4.396,0-7.972,3.574-7.972,7.968
		c0,0.245,0.015,0.486,0.037,0.725c0.006,0.067,0.013,0.132,0.021,0.199c0.023,0.193,0.052,0.384,0.088,0.572
		c0.01,0.048,0.016,0.097,0.026,0.144c0.046,0.222,0.104,0.441,0.169,0.656c0.02,0.068,0.044,0.135,0.067,0.202
		c0.051,0.154,0.107,0.307,0.167,0.457c0.03,0.074,0.058,0.149,0.091,0.221c0.083,0.192,0.173,0.379,0.271,0.563
		c0.042,0.078,0.088,0.152,0.132,0.228c0.065,0.114,0.133,0.226,0.204,0.336c0.059,0.092,0.119,0.182,0.182,0.271
		c0.065,0.092,0.133,0.181,0.202,0.269c0.124,0.161,0.253,0.316,0.389,0.466c0.058,0.065,0.114,0.129,0.174,0.191
		c0.094,0.098,0.191,0.193,0.29,0.286c0.051,0.048,0.103,0.095,0.155,0.142c0.347,0.31,0.721,0.591,1.119,0.837
		c0.046,0.029,0.092,0.057,0.139,0.084c0.132,0.079,0.267,0.156,0.404,0.227C186.551,163.095,186.228,161.86,186.228,160.549z"/>
	<path style="fill:#FDBD1D;" d="M194.081,139.828c-0.064-0.012-0.128-0.023-0.192-0.034
		C193.953,139.805,194.017,139.816,194.081,139.828z"/>
	<path style="fill:#FDBD1D;" d="M192.45,139.593c-0.05-0.005-0.101-0.007-0.151-0.012C192.35,139.585,192.4,139.587,192.45,139.593z
		"/>
	<path style="fill:#FDBD1D;" d="M197.102,140.696c-0.031-0.012-0.061-0.025-0.093-0.037
		C197.041,140.672,197.071,140.684,197.102,140.696z"/>
	<path style="fill:#FDBD1D;" d="M195.636,140.202c-0.056-0.016-0.112-0.032-0.167-0.048
		C195.525,140.17,195.58,140.186,195.636,140.202z"/>
	<path style="fill:#58D2D4;" d="M208.36,157.109c0,8.07-5.462,14.884-12.882,16.952c-0.137,0.989-0.278,1.971-0.434,2.933h40.293
		c2.192,0,3.975-1.782,3.975-3.974v-29.151h-36.976C206.024,147.097,208.36,151.834,208.36,157.109z"/>
	<path style="fill:#FDBD1D;" d="M184.512,140.658c-0.035,0.013-0.068,0.027-0.103,0.041
		C184.444,140.686,184.478,140.672,184.512,140.658z"/>
	<path style="fill:#58D2D4;" d="M54.159,143.868c-2.192,0-3.975,1.783-3.975,3.975v29.15h135.098
		c0.174-0.992,0.337-1.995,0.488-3.009c-7.284-2.156-12.615-8.903-12.615-16.875c0-5.278,2.34-10.017,6.032-13.246
		c-0.002,0.002-0.005,0.003-0.007,0.005H54.159z"/>
	<path style="fill:#FDBD1D;" d="M186.052,140.154c-0.058,0.016-0.116,0.032-0.173,0.049
		C185.937,140.186,185.994,140.17,186.052,140.154z"/>
	<path style="fill:#FDBD1D;" d="M187.632,139.793c-0.065,0.012-0.13,0.023-0.195,0.035
		C187.502,139.816,187.567,139.805,187.632,139.793z"/>
	<path style="fill:#FDBD1D;" d="M189.221,139.581c-0.05,0.005-0.102,0.007-0.152,0.012
		C189.119,139.587,189.17,139.585,189.221,139.581z"/>
	<path style="fill:#58D2D4;" d="M150.753,240.286c-18.066,8.424-34.884,8.046-37.14,7.951c-1.108,0.033-2.208,0.049-3.295,0.049
		c-10.162,0-19.442-1.434-27.803-4.272c0.013,0.004,0.026,0.009,0.038,0.013l5.125,27.417c0.298,1.571,3.353,15.195,19.644,15.195
		h74.85c16.291,0,19.346-13.623,19.641-15.177l15.83-84.693h-24.612C185.113,218.028,166.215,233.077,150.753,240.286z"/>
	<path style="fill:#FDBD1D;" d="M78.572,242.544c0.07,0.028,0.139,0.059,0.209,0.087C78.711,242.604,78.642,242.573,78.572,242.544z
		"/>
	<path style="fill:#FDBD1D;" d="M80.799,271.445l-5.685-30.417L80.799,271.445c0.298,1.571,3.353,15.195,19.643,15.195h0.001
		C84.153,286.64,81.097,273.017,80.799,271.445z"/>
	<path style="fill:#FDBD1D;" d="M75.114,241.028c0.606,0.287,1.218,0.565,1.835,0.835C76.332,241.593,75.72,241.315,75.114,241.028z
		"/>
	<path style="fill:#FDBD1D;" d="M104.186,114.431c-0.3,0.007-0.603-0.014-0.908-0.065
		C103.583,114.417,103.886,114.438,104.186,114.431z"/>
	<path style="fill:#FDBD1D;" d="M96.268,113.765L96.268,113.765c1.713,0,3.467,0.114,5.236,0.339
		C99.736,113.879,97.981,113.765,96.268,113.765z"/>
	<path style="fill:#FDBD1D;" d="M144.211,86.634L144.211,86.634c2.381,0,4.725,0.197,7.005,0.579
		C148.936,86.831,146.593,86.634,144.211,86.634z"/>
	<path style="fill:#FDBD1D;" d="M115.606,117.753c-0.646,2.394-3.009,3.902-5.449,3.494c-2.368-0.399-4.726-0.601-7.01-0.601
		c-8.097,0-15.814,2.378-22.049,6.465h59.391l18.576-31.57c-2.771-0.575-5.641-0.888-8.576-0.888
		C133.452,94.652,119.462,103.481,115.606,117.753z"/>
	<path style="fill:#FDBD1D;" d="M189.769,108.711l-10.849,18.398h37.07C212.047,116.736,202.348,111.043,189.769,108.711z"/>
	<path style="fill:#FDBD1D;" d="M170.938,52.564c-0.045-0.167-0.089-0.335-0.131-0.503
		C170.849,52.229,170.893,52.397,170.938,52.564z"/>
	<path style="fill:#FDBD1D;" d="M251.485,52.11c-0.177,0.328-0.37,0.678-0.572,1.039C251.114,52.788,251.308,52.438,251.485,52.11z"
		/>
	<path style="fill:#FDBD1D;" d="M250.102,54.563c-0.496,0.847-1.046,1.752-1.651,2.7C249.057,56.314,249.606,55.41,250.102,54.563z"
		/>
	<path style="fill:#FDBD1D;" d="M250.768,53.405c-0.179,0.317-0.366,0.644-0.562,0.982C250.402,54.049,250.59,53.722,250.768,53.405
		z"/>
	<path style="fill:#FDBD1D;" d="M172.231,56.336c-0.124-0.295-0.244-0.594-0.359-0.893
		C171.986,55.742,172.107,56.039,172.231,56.336z"/>
	<path style="fill:#FDBD1D;" d="M171.551,54.552c-0.099-0.285-0.193-0.572-0.284-0.861C171.357,53.98,171.452,54.266,171.551,54.552
		z"/>
	<path style="fill:#FDA6B6;" d="M248.447,57.271L184.84,20.135c-4.612,6.932-14.016,23.477-10.951,39.286
		c0.03,0.152,0.07,0.3,0.102,0.451c-0.596-1.027-1.125-2.078-1.594-3.15c3.077,7.079,8.946,13.146,17.549,18.086
		c0.218,0.101,0.431,0.218,0.637,0.355c0.05,0.033,0.1,0.067,0.149,0.102c7.447,4.423,14.691,6.666,21.538,6.666
		C229.761,81.934,242.097,67.229,248.447,57.271z M194.236,68.337c-1.118-0.617-9.128-5.321-11.533-14.762
		c-1.836-7.207,0.015-15.029,5.502-23.25c1.431-2.143,4.292-2.782,6.498-1.447l35.312,21.356c2.219,1.342,2.976,4.199,1.715,6.464
		c-0.353,0.633-8.812,15.506-24.031,15.506C203.241,72.205,198.712,70.904,194.236,68.337z"/>
	<polygon style="fill:#FDA6B6;" points="168.052,126.577 191.218,87.289 179.217,80.284 151.98,126.573 	"/>
	<path style="fill:#B74B00;" d="M231.729,56.699c1.262-2.265,0.504-5.122-1.715-6.464l-35.312-21.356
		c-2.207-1.334-5.068-0.696-6.498,1.447c-5.487,8.22-7.338,16.043-5.502,23.25c2.405,9.441,10.415,14.145,11.533,14.762
		c4.476,2.567,9.006,3.868,13.463,3.868C222.916,72.205,231.376,57.332,231.729,56.699z M207.698,62.573
		c-2.765,0-5.693-0.878-8.704-2.611c-0.054-0.031-0.077-0.044-0.132-0.073c-0.054-0.029-5.427-3.015-6.849-8.784
		c-0.836-3.392-0.202-7.233,1.885-11.458l26.643,16.113C217.872,58.801,213.409,62.573,207.698,62.573z"/>
	<path style="fill:#B74B00;" d="M212.268,91.563c0.003,0,0.002,0,0.006,0c32.685,0,49.267-37.834,49.956-39.445
		c0.957-2.233,0.099-4.83-1.999-6.055L182.461,0.658c-2.063-1.205-4.694-0.715-6.188,1.149c-0.823,1.028-20.103,25.466-15.29,50.454
		c1.527,7.931,5.276,14.958,11.179,21.02l-5.302,9.011c-6.795-3.416-14.555-5.29-22.65-5.29c-19.79,0-37.039,11.049-43.451,27.335
		c-1.511-0.135-3.012-0.204-4.491-0.204c-17.906,0-33.873,9.027-41.524,23.223h-7.465c-7.502,0-13.606,6.104-13.606,13.607v30.58
		c-0.016,0.179-0.024,0.362-0.02,0.546c0.001,0.085,0.007,0.286,0.02,0.589v0.34c0,0.632,0.059,1.25,0.142,1.86
		c0.714,8.722,4.502,35.722,24.399,54.583c1.864,1.766,3.823,3.395,5.857,4.914l7.251,38.792c1.411,7.991,9.313,23.104,29.12,23.104
		h81.731c19.808,0,27.71-15.113,29.112-23.057l16.185-86.59h7.867c7.503,0,13.607-6.103,13.607-13.606v-32.056
		c0-7.503-6.104-13.607-13.607-13.607h-6.371c-3.037-15.079-15.428-27.251-31.44-31.799l3.271-5.548
		C204.664,91.041,208.495,91.563,212.268,91.563z M179.217,80.284l12.001,7.005l-23.166,39.288l-16.072-0.005L179.217,80.284z
		 M69.206,124.183c6.809-6.476,16.623-10.418,27.062-10.418h0c1.713,0,3.467,0.114,5.236,0.339c0.59,0.075,1.181,0.162,1.773,0.263
		c0.305,0.051,0.609,0.072,0.908,0.065c1.797-0.041,3.434-1.087,4.221-2.705c0.131-0.269,0.239-0.555,0.319-0.854
		c0.723-2.676,1.823-5.201,3.246-7.536c0.475-0.779,0.985-1.537,1.529-2.272c0.816-1.103,1.708-2.155,2.67-3.153
		c6.731-6.985,16.858-11.277,28.039-11.277h0c2.382,0,4.725,0.197,7.005,0.579c3.799,0.635,7.423,1.784,10.755,3.389l-2.905,4.938
		l-18.576,31.57H81.098h-14.62C67.322,126.085,68.233,125.108,69.206,124.183z M45.466,186.49c0.595,0.079,1.198,0.135,1.814,0.135
		h7.868l5.974,31.964C52.16,208.317,47.689,195.93,45.466,186.49z M64.974,186.77h6.88h111.234
		c-5.863,21.083-17.949,36.06-36.063,44.625c-16.846,7.967-32.949,7.223-33.101,7.214c-0.14-0.007-0.28-0.01-0.422-0.005
		c-12.509,0.391-23.511-1.535-32.92-5.709c-2.716-1.204-5.305-2.587-7.752-4.165c-0.006-0.004-0.012-0.008-0.018-0.011
		L64.974,186.77z M201.814,271.463c-0.295,1.553-3.35,15.177-19.641,15.177h-74.85h-6.88h-0.001
		c-16.29,0-19.346-13.623-19.644-15.195l-5.685-30.417c0.606,0.287,1.218,0.565,1.835,0.835c0.536,0.235,1.078,0.46,1.623,0.681
		c0.07,0.028,0.139,0.059,0.209,0.087c1.223,0.494,2.469,0.953,3.735,1.383c8.361,2.837,17.641,4.272,27.803,4.272
		c1.087,0,2.187-0.016,3.295-0.049c2.255,0.095,19.074,0.472,37.14-7.951c15.461-7.209,34.36-22.257,42.279-53.516h24.612
		L201.814,271.463z M186.572,163.876c-0.398-0.247-0.771-0.527-1.119-0.837c-0.052-0.047-0.104-0.093-0.155-0.142
		c-0.099-0.093-0.196-0.187-0.29-0.286c-0.06-0.063-0.116-0.127-0.174-0.191c-0.135-0.15-0.265-0.306-0.389-0.466
		c-0.068-0.089-0.137-0.177-0.202-0.269c-0.063-0.089-0.123-0.179-0.182-0.271c-0.071-0.11-0.139-0.222-0.204-0.336
		c-0.044-0.077-0.091-0.15-0.132-0.228c-0.098-0.183-0.188-0.371-0.271-0.563c-0.032-0.073-0.061-0.147-0.091-0.221
		c-0.06-0.15-0.116-0.302-0.167-0.457c-0.022-0.067-0.046-0.134-0.067-0.202c-0.065-0.215-0.123-0.434-0.169-0.656
		c-0.01-0.048-0.017-0.097-0.026-0.144c-0.036-0.189-0.065-0.38-0.088-0.572c-0.007-0.067-0.015-0.132-0.021-0.199
		c-0.022-0.239-0.037-0.48-0.037-0.725c0-4.393,3.576-7.968,7.972-7.968c0.245,0,0.485,0.015,0.724,0.036
		c0.067,0.007,0.134,0.014,0.2,0.022c0.192,0.023,0.382,0.052,0.569,0.087c0.05,0.009,0.1,0.016,0.149,0.027
		c0.222,0.047,0.44,0.103,0.655,0.169c0.069,0.021,0.137,0.045,0.205,0.068c0.153,0.051,0.303,0.106,0.452,0.165
		c0.075,0.031,0.151,0.06,0.225,0.093c0.191,0.083,0.378,0.173,0.56,0.27c0.08,0.042,0.156,0.09,0.234,0.135
		c0.112,0.064,0.222,0.131,0.33,0.201c0.093,0.059,0.184,0.121,0.274,0.184c0.09,0.063,0.177,0.13,0.263,0.197
		c0.165,0.126,0.323,0.259,0.478,0.398c0.062,0.056,0.124,0.11,0.185,0.168c0.099,0.095,0.193,0.192,0.287,0.292
		c0.048,0.05,0.093,0.102,0.14,0.153c0.311,0.347,0.591,0.721,0.838,1.119c0.029,0.046,0.057,0.093,0.085,0.141
		c0.079,0.133,0.155,0.267,0.226,0.404l0,0c0.564,1.092,0.888,2.327,0.888,3.639c0,4.393-3.574,7.968-7.968,7.968
		c-1.479,0-2.86-0.412-4.049-1.117C186.664,163.933,186.618,163.905,186.572,163.876z M235.337,136.988
		c2.192,0,3.975,1.783,3.975,3.975v2.905v29.151c0,2.192-1.783,3.974-3.975,3.974h-40.293c0.156-0.962,0.297-1.944,0.434-2.933
		c7.42-2.067,12.882-8.881,12.882-16.952c0-5.275-2.336-10.012-6.025-13.24c-1.533-1.342-3.301-2.423-5.233-3.172
		c-0.031-0.012-0.061-0.025-0.093-0.037c-0.449-0.171-0.907-0.323-1.373-0.458c-0.056-0.016-0.112-0.032-0.167-0.048
		c-0.455-0.127-0.918-0.237-1.388-0.327c-0.064-0.012-0.128-0.023-0.192-0.034c-0.474-0.085-0.953-0.155-1.439-0.201
		c-0.05-0.005-0.101-0.007-0.151-0.012c-0.508-0.044-1.021-0.071-1.539-0.071c-0.519,0-1.031,0.027-1.539,0.071
		c-0.05,0.005-0.102,0.007-0.152,0.012c-0.485,0.046-0.964,0.116-1.437,0.2c-0.065,0.012-0.13,0.023-0.195,0.035
		c-0.468,0.09-0.93,0.199-1.385,0.326c-0.058,0.016-0.116,0.033-0.173,0.049c-0.464,0.134-0.92,0.285-1.367,0.455
		c-0.034,0.013-0.068,0.027-0.103,0.041c-1.927,0.748-3.691,1.825-5.221,3.164c-3.692,3.229-6.032,7.968-6.032,13.246
		c0,7.972,5.331,14.719,12.615,16.875c-0.15,1.015-0.314,2.017-0.488,3.009H50.185h-2.905c-1.875,0-3.447-1.307-3.863-3.057
		c-0.058-0.679-0.092-1.204-0.112-1.555v-31.417c0-2.192,1.783-3.975,3.975-3.975H235.337z M219.009,127.109h-3.019h-37.07
		l10.849-18.398c-0.087-0.016-0.172-0.036-0.26-0.052l2.924-4.465C205.415,106.995,215.781,115.834,219.009,127.109z
		 M190.732,75.265c-0.048-0.035-0.098-0.069-0.149-0.102c-0.206-0.136-0.419-0.254-0.637-0.355
		c-8.603-4.941-14.472-11.008-17.549-18.086c-0.056-0.129-0.112-0.257-0.167-0.386c-0.123-0.296-0.245-0.593-0.359-0.893
		c-0.112-0.295-0.218-0.593-0.321-0.891c-0.099-0.285-0.194-0.572-0.284-0.861c-0.116-0.373-0.228-0.748-0.329-1.127
		c-0.045-0.167-0.089-0.335-0.131-0.503c-0.131-0.524-0.255-1.051-0.358-1.584c-3.065-15.808,6.339-32.353,10.951-39.286
		l70.085,40.918c-0.177,0.328-0.371,0.679-0.572,1.039c-0.047,0.084-0.097,0.171-0.145,0.257c-0.178,0.317-0.366,0.644-0.562,0.982
		c-0.035,0.059-0.068,0.118-0.103,0.177c-0.496,0.847-1.045,1.75-1.651,2.7c-0.001,0.003-0.003,0.005-0.005,0.008
		c-6.35,9.958-18.685,24.663-36.177,24.66C205.423,81.93,198.179,79.688,190.732,75.265z"/>
</g>
</svg>